Coordinates																																									
version=1																																									
nRows= 21																																									
nColumns=42																																									
inDegrees=yes																																									
																																									
"Units are S.I. units (second, meters, Newtons, ...)"																																									
Angles are in degrees.																																									
																																									
endheader																																									
time	pelvis_tx	pelvis_ty	pelvis_tz	pelvis_tilt	pelvis_list	pelvis_rotation	hip_flexion_r	hip_adduction_r	hip_rotation_r	knee_angle_r	ankle_angle_r	subtalar_angle_r	mtp_angle_r	hip_flexion_l	hip_adduction_l	hip_rotation_l	knee_angle_l	ankle_angle_l	subtalar_angle_l	mtp_angle_l	lumbar_extension	lumbar_bending	lumbar_rotation	ground_force_vx	ground_force_vy	ground_force_vz	ground_force_px	ground_force_py	ground_force_pz	ground_force_vx	ground_force_vy	ground_force_vz	ground_force_px	ground_force_py	ground_force_pz	ground_torque_x	ground_torque_y	ground_torque_z	ground_torque_x	ground_torque_y	ground_torque_z
3.85	-0.034383	0.781796	-0.227827	8.282959	-8.515191	106.550209	28.290464	6.055288	8.444102	-53.928964	25.062624	0	0	21.146648	5.121853	36.086358	-64.438928	18.109946	0	0	31.566539	9.94366	5.270542	-51.796745	339.362823	-12.786809	0.160986	0.001658	-0.119393	2.520187	51.04744	3.462328	-0.231469	0.011583	-0.059783	0.054139	-4.907027	-0.100654	0.000685	-0.596782	0.001268
3.86	-0.034112	0.785067	-0.234052	7.803311	-7.195465	107.268204	25.53847	4.95568	5.240026	-51.777444	26.800479	0	0	19.951956	3.827657	33.594846	-63.160084	19.174501	0	0	30.461667	9.604811	3.826929	-55.437302	350.327179	-13.561362	0.157511	-0.002722	-0.121424	1.520114	39.761845	3.895117	-0.237499	0.007858	-0.061044	0.056219	-5.095504	-0.10452	0.000664	-0.577986	0.001229
3.87	-0.033846	0.788065	-0.239991	7.306499	-6.026925	108.019371	23.031531	3.912956	2.351875	-49.879208	28.360609	0	0	18.952079	2.728469	31.27267	-62.093687	20.172175	0	0	29.501947	9.229303	2.507693	-59.215233	361.855499	-14.373189	0.155584	-0.006229	-0.124536	0.850878	30.192112	3.916827	-0.247083	0.004519	-0.06239	0.05821	-5.275967	-0.108222	0.000636	-0.554116	0.001178
3.88	-0.033584	0.790609	-0.24551	6.793763	-5.087962	108.782028	20.905264	2.985613	-0.003549	-48.372534	29.630272	0	0	18.258533	1.922941	29.221253	-61.333692	21.058665	0	0	28.756452	8.815097	1.390717	-63.003227	373.620026	-15.193195	0.155047	-0.008735	-0.128162	0.448239	22.282059	3.482943	-0.262277	0.001826	-0.062829	0.060062	-5.443817	-0.111665	0.000599	-0.521338	0.001108
3.89	-0.033295	0.79266	-0.250587	6.278843	-4.396197	109.517693	19.189095	2.216485	-1.740273	-47.268635	30.573989	0	0	17.908158	1.405024	27.422472	-60.8796	21.840811	0	0	28.234464	8.381965	0.512671	-66.66024	385.239716	-15.989789	0.155465	-0.010338	-0.131771	0	0	0	0	0	0	0.061742	-5.596102	-0.114788	0	0	0
3.9	-0.032944	0.794268	-0.25528	5.771782	-3.92917	110.187477	17.841762	1.617761	-2.874453	-46.504972	31.215508	0	0	17.880648	1.119033	25.797315	-60.666389	22.546869	0	0	27.905274	7.950707	-0.125482	-70.050529	396.299286	-16.728409	0.156392	-0.011232	-0.135044	0	0	0	0	0	0	0.063238	-5.73171	-0.11757	0	0	0
3.91	-0.032521	0.795537	-0.259679	5.271927	-3.642813	110.767982	16.785313	1.167593	-3.497025	-45.994057	31.613087	0	0	18.121066	1.002362	24.259114	-60.600348	23.204613	0	0	27.718284	7.530646	-0.559723	-73.052155	406.371613	-17.368397	0.157494	-0.011621	-0.137885	0	0	0	0	0	0	0.06456	-5.851534	-0.120028	0	0	0
3.92	-0.032049	0.796589	-0.263874	4.760739	-3.488374	111.254967	15.931304	0.809699	-3.739271	-45.655512	31.841423	0	0	18.557569	1.016565	22.742477	-60.582132	23.827969	0	0	27.617158	7.111179	-0.840424	-75.554283	415.055878	-17.866533	0.158572	-0.011683	-0.14035	0	0	0	0	0	0	0.065734	-5.957922	-0.12221	0	0	0
3.93	-0.031572	0.797536	-0.26794	4.204407	-3.423518	111.657967	15.198407	0.46726	-3.73492	-45.428903	31.974919	0	0	19.116053	1.156493	21.214841	-60.52219	24.413231	0	0	27.549848	6.665803	-1.002164	-77.46199	422.010773	-18.180763	0.159542	-0.011559	-0.142557	0	0	0	0	0	0	0.066787	-6.053314	-0.124167	0	0	0
3.94	-0.031129	0.798467	-0.271932	3.570821	-3.414403	111.990059	14.520753	0.073206	-3.58917	-45.270111	32.070791	0	0	19.732811	1.431979	19.672659	-60.352877	24.946159	0	0	27.474917	6.170498	-1.048758	-78.709129	426.974762	-18.278158	0.160386	-0.011359	-0.14463	0	0	0	0	0	0	0.067742	-6.139914	-0.125943	0	0	0
3.95	-0.030745	0.799436	-0.275883	2.845651	-3.43909	112.259453	13.856915	-0.407983	-3.364049	-45.146546	32.161004	0	0	20.367861	1.847258	18.130934	-60.034938	25.411101	0	0	27.369186	5.618395	-0.95104	-79.268456	429.816223	-18.156967	0.161125	-0.011156	-0.146658	0	0	0	0	0	0	0.068602	-6.217873	-0.127542	0	0	0
3.96	-0.03042	0.800449	-0.279815	2.03983	-3.488836	112.469063	13.193393	-0.974125	-3.083324	-45.034538	32.254578	0	0	21.011468	2.389817	16.616424	-59.558532	25.797478	0	0	27.230972	5.022107	-0.674542	-79.148598	430.548248	-17.844257	0.161785	-0.010988	-0.148683	0	0	0	0	0	0	0.069346	-6.285296	-0.128925	0	0	0
3.97	-0.030143	0.801489	-0.28374	1.185925	-3.557479	112.621918	12.530549	-1.591226	-2.752596	-44.915713	32.345904	0	0	21.672416	3.028552	15.166035	-58.939403	26.103236	0	0	27.068975	4.40759	-0.224638	-78.383942	429.313171	-17.390045	0.162384	-0.010861	-0.150704	0	0	0	0	0	0	0.069942	-6.339296	-0.130033	0	0	0
3.98	-0.029911	0.802537	-0.28766	0.317971	-3.629634	112.727287	11.861838	-2.219922	-2.38621	-44.777689	32.428041	0	0	22.353937	3.730932	13.82674	-58.207255	26.331513	0	0	26.884603	3.799025	0.345966	-77.033554	426.378662	-16.857244	0.16292	-0.010764	-0.152702	0	0	0	0	0	0	0.070354	-6.376695	-0.1308	0	0	0
3.99	-0.029742	0.803584	-0.291576	-0.550043	-3.686823	112.803253	11.17312	-2.84897	-2.025615	-44.620615	32.504734	0	0	23.045022	4.488548	12.652319	-57.391375	26.482506	0	0	26.6702	3.200346	0.962729	-75.183136	422.092102	-16.311119	0.163367	-0.010684	-0.154664	0	0	0	0	0	0	0.070529	-6.392479	-0.131124	0	0	0
4	-0.029665	0.804605	-0.295493	-1.416906	-3.725771	112.870941	10.465641	-3.493475	-1.729664	-44.458627	32.588653	0	0	23.741908	5.312518	11.692049	-56.518466	26.553303	0	0	26.427962	2.597591	1.546826	-72.938828	416.831848	-15.795403	0.163692	-0.010607	-0.156603	0	0	0	0	0	0	0.070405	-6.381272	-0.130894	0	0	0
4.01	-0.029684	0.805544	-0.299421	-2.268744	-3.760032	112.938362	9.766614	-4.155182	-1.530065	-44.309196	32.687062	0	0	24.465164	6.198033	10.972909	-55.619955	26.547209	0	0	26.178913	1.986541	2.03546	-70.41687	410.97403	-15.327845	0.163892	-0.010523	-0.158546	0	0	0	0	0	0	0.069933	-6.338461	-0.130016	0	0	0
4.02	-0.029764	0.806341	-0.303372	-3.075549	-3.799057	112.988045	9.106326	-4.799595	-1.396337	-44.180976	32.794293	0	0	25.240329	7.106184	10.489284	-54.730449	26.478608	0	0	25.944112	1.391368	2.416894	-67.737419	404.865784	-14.909129	0.164004	-0.01043	-0.160514	0	0	0	0	0	0	0.069073	-6.260539	-0.128418	0	0	0
4.03	-0.029844	0.806967	-0.307359	-3.81262	-3.835706	112.986389	8.495054	-5.381276	-1.262212	-44.074582	32.901868	0	0	26.071305	7.985634	10.211541	-53.87632	26.36673	0	0	25.727067	0.850398	2.74429	-65.017838	398.807037	-14.528547	0.164085	-0.01033	-0.162502	0	0	0	0	0	0	0.067801	-6.145272	-0.126053	0	0	0
4.04	-0.02987	0.807415	-0.311402	-4.477849	-3.860087	112.903992	7.930939	-5.883038	-1.078408	-43.994171	33.012835	0	0	26.943175	8.805966	10.103965	-53.067571	26.225427	0	0	25.522079	0.387003	3.111109	-62.364326	393.025818	-14.167865	0.164169	-0.010229	-0.1645	0	0	0	0	0	0	0.066119	-5.992846	-0.122927	0	0	0
4.05	-0.029813	0.807674	-0.315527	-5.086479	-3.878247	112.724678	7.421617	-6.321895	-0.827148	-43.952681	33.141341	0	0	27.844123	9.56619	10.136178	-52.300432	26.059146	0	0	25.333083	-0.000854	3.610576	-59.86977	387.682098	-13.804434	0.164274	-0.010131	-0.166498	0	0	0	0	0	0	0.064057	-5.805911	-0.119092	0	0	0
